<svg width="1280" height="720" xmlns="http://www.w3.org/2000/svg" xmlns:xlink="http://www.w3.org/1999/xlink" overflow="hidden"><defs><clipPath id="clip0"><rect x="0" y="0" width="1280" height="720"/></clipPath><linearGradient x1="468" y1="12.5001" x2="468" y2="709.5" gradientUnits="userSpaceOnUse" spreadMethod="reflect" id="fill1"><stop offset="0" stop-color="#A8B7DF"/><stop offset="0.5" stop-color="#9AABD9"/><stop offset="1" stop-color="#879ED7"/></linearGradient></defs><g clip-path="url(#clip0)"><rect x="0" y="0" width="1280" height="720" fill="#FFFFFF"/><path d="M21.5001 128.669C21.5001 64.5107 73.5107 12.5001 137.669 12.5001L798.331 12.5001C862.489 12.5001 914.5 64.5107 914.5 128.669L914.5 593.331C914.5 657.489 862.489 709.5 798.331 709.5L137.669 709.5C73.5107 709.5 21.5001 657.489 21.5001 593.331Z" stroke="#4472C4" stroke-width="0.666667" stroke-miterlimit="8" fill="url(#fill1)" fill-rule="evenodd"/><path d="M924.5 68.0011C924.5 35.6919 950.692 9.50005 983.001 9.50005L1217 9.50005C1249.31 9.50005 1275.5 35.6919 1275.5 68.0011L1275.5 647.999C1275.5 680.308 1249.31 706.5 1217 706.5L983.001 706.5C950.692 706.5 924.5 680.308 924.5 647.999Z" stroke="#BC8C00" stroke-width="1.33333" stroke-miterlimit="8" fill="#FFC000" fill-rule="evenodd"/><rect x="769.5" y="384.5" width="134" height="68" stroke="#2F528F" stroke-width="1.33333" stroke-miterlimit="8" fill="#4472C4"/><text fill="#FFFFFF" font-family="Calibri,Calibri_MSFontService,sans-serif" font-weight="400" font-size="24" transform="translate(786.621 412)">JobQueue<tspan font-size="24" x="5.43335" y="29">Manager</tspan></text><rect x="1041.5" y="630.5" width="107" height="68" stroke="#2F528F" stroke-width="1.33333" stroke-miterlimit="8" fill="#4472C4"/><text fill="#FFFFFF" font-family="Calibri,Calibri_MSFontService,sans-serif" font-weight="400" font-size="24" transform="translate(1058.72 672)">Worker</text><rect x="1041.5" y="491.5" width="107" height="68" stroke="#2F528F" stroke-width="1.33333" stroke-miterlimit="8" fill="#4472C4"/><text fill="#FFFFFF" font-family="Calibri,Calibri_MSFontService,sans-serif" font-weight="400" font-size="24" transform="translate(1058.72 532)">Worker</text><rect x="1041.5" y="322.5" width="107" height="69" stroke="#2F528F" stroke-width="1.33333" stroke-miterlimit="8" fill="#4472C4"/><text fill="#FFFFFF" font-family="Calibri,Calibri_MSFontService,sans-serif" font-weight="400" font-size="24" transform="translate(1058.72 364)">Worker</text><rect x="1041.5" y="154.5" width="107" height="68" stroke="#2F528F" stroke-width="1.33333" stroke-miterlimit="8" fill="#4472C4"/><text fill="#FFFFFF" font-family="Calibri,Calibri_MSFontService,sans-serif" font-weight="400" font-size="24" transform="translate(1058.72 196)">Worker</text><rect x="371.5" y="154.5" width="272" height="32" stroke="#2F528F" stroke-width="1.33333" stroke-miterlimit="8" fill="#4472C4"/><text fill="#FFFFFF" font-family="Calibri,Calibri_MSFontService,sans-serif" font-weight="400" font-size="24" transform="translate(391.519 178)">dist_build<tspan font-size="24" x="107.233" y="0">gcc</tspan><tspan font-size="24" x="144.26" y="0">–</tspan>c file1.c</text><rect x="49.5001" y="408.5" width="173" height="84" stroke="#2F528F" stroke-width="1.33333" stroke-miterlimit="8" fill="#4472C4"/><text fill="#FFFFFF" font-family="Calibri,Calibri_MSFontService,sans-serif" font-weight="400" font-size="24" transform="translate(100.836 429)">Ninja -<tspan font-size="24" x="63.6667" y="0">j</tspan><tspan font-size="24" x="-20.8667" y="29">OR make  </tspan><tspan font-size="24" x="77.1933" y="29">-</tspan><tspan font-size="24" x="84.5267" y="29">j</tspan><tspan font-size="24" x="-23.2" y="58">OR </tspan><tspan font-size="24" x="11.1333" y="58">cmake</tspan><tspan font-size="24" x="79.5267" y="58">-</tspan><tspan font-size="24" x="86.86" y="58">j</tspan></text><rect x="371.5" y="220.5" width="272" height="31" stroke="#2F528F" stroke-width="1.33333" stroke-miterlimit="8" fill="#4472C4"/><text fill="#FFFFFF" font-family="Calibri,Calibri_MSFontService,sans-serif" font-weight="400" font-size="24" transform="translate(391.519 243)">dist_build<tspan font-size="24" x="107.233" y="0">gcc</tspan><tspan font-size="24" x="144.26" y="0">–</tspan>c file2.c</text><rect x="371.5" y="286.5" width="272" height="31" stroke="#2F528F" stroke-width="1.33333" stroke-miterlimit="8" fill="#4472C4"/><text fill="#FFFFFF" font-family="Calibri,Calibri_MSFontService,sans-serif" font-weight="400" font-size="24" transform="translate(391.519 309)">dist_build<tspan font-size="24" x="107.233" y="0">gcc</tspan><tspan font-size="24" x="144.26" y="0">–</tspan>c file3.c</text><rect x="371.5" y="351.5" width="272" height="32" stroke="#2F528F" stroke-width="1.33333" stroke-miterlimit="8" fill="#4472C4"/><text fill="#FFFFFF" font-family="Calibri,Calibri_MSFontService,sans-serif" font-weight="400" font-size="24" transform="translate(391.519 375)">dist_build<tspan font-size="24" x="107.233" y="0">gcc</tspan><tspan font-size="24" x="144.26" y="0">–</tspan>c file4.c</text><rect x="371.5" y="417.5" width="272" height="32" stroke="#2F528F" stroke-width="1.33333" stroke-miterlimit="8" fill="#4472C4"/><text fill="#FFFFFF" font-family="Calibri,Calibri_MSFontService,sans-serif" font-weight="400" font-size="24" transform="translate(391.519 440)">dist_build<tspan font-size="24" x="107.233" y="0">gcc</tspan><tspan font-size="24" x="144.26" y="0">–</tspan>c file5.c</text><rect x="371.5" y="487.5" width="272" height="32" stroke="#2F528F" stroke-width="1.33333" stroke-miterlimit="8" fill="#4472C4"/><text fill="#FFFFFF" font-family="Calibri,Calibri_MSFontService,sans-serif" font-weight="400" font-size="24" transform="translate(391.519 511)">dist_build<tspan font-size="24" x="107.233" y="0">gcc</tspan><tspan font-size="24" x="144.26" y="0">–</tspan>c file6.c</text><rect x="371.5" y="657.5" width="272" height="32" stroke="#2F528F" stroke-width="1.33333" stroke-miterlimit="8" fill="#4472C4"/><text fill="#FFFFFF" font-family="Calibri,Calibri_MSFontService,sans-serif" font-weight="400" font-size="24" transform="translate(389.852 681)">dist_build<tspan font-size="24" x="107.233" y="0">gcc</tspan><tspan font-size="24" x="144.26" y="0">–</tspan>c <tspan font-size="24" x="171.927" y="0">fileN.c</tspan><tspan fill="#000000" font-size="24" x="115.685" y="-135">….</tspan><tspan fill="#000000" font-size="24" x="115.685" y="-106">….</tspan><tspan fill="#000000" font-size="24" x="115.685" y="-77">….</tspan><tspan fill="#000000" font-size="24" x="115.685" y="-48">….</tspan><tspan fill="#000000" font-size="24" x="115.685" y="-19">….</tspan></text><path d="M948.144 345.245 945.319 323.087 951.565 327.92 1020.76 238.503 1014.51 233.67 1036.67 230.845 1039.5 253.003 1033.25 248.17 964.056 337.587 970.302 342.42Z" stroke="#AE5A21" stroke-width="1.33333" stroke-miterlimit="8" fill="#ED7D31" fill-rule="evenodd"/><path d="M924.997 502.719 949.003 503.829 942.724 509.553 1031.16 606.562 1037.44 600.838 1036.33 624.845 1012.32 623.734 1018.6 618.01 930.166 521.001 923.887 526.725Z" stroke="#AE5A21" stroke-width="1.33333" stroke-miterlimit="8" fill="#ED7D31" fill-rule="evenodd"/><path d="M936.491 448.87 954.93 440.377 952.443 447.11 1022.63 473.03 1025.12 466.297 1033.61 484.735 1015.17 493.228 1017.66 486.495 947.471 460.575 944.984 467.308Z" stroke="#AE5A21" stroke-width="1.33333" stroke-miterlimit="8" fill="#ED7D31" fill-rule="evenodd"/><path d="M933.204 405.583 939.892 388.573 942.472 394.497 1013.69 363.475 1011.11 357.551 1028.12 364.238 1021.43 381.248 1018.85 375.324 947.634 406.346 950.214 412.27Z" stroke="#AE5A21" stroke-width="1.33333" stroke-miterlimit="8" fill="#ED7D31" fill-rule="evenodd"/><path d="M9.07482 10.1261 135.64 224.51 131.047 227.221 4.48212 12.8375ZM1.24507 17.8452 0 0 15.0232 9.71104ZM138.877 219.502 140.122 237.347 125.099 227.636Z" fill="#ED7D31" transform="matrix(1 0 0 -1 227.5 413.847)"/><path d="M238.986 500.156 357.381 645.577 353.245 648.945 234.85 503.523ZM232.398 508.959 228.5 491.5 244.806 498.857ZM359.833 640.142 363.731 657.601 347.425 650.244Z" fill="#ED7D31"/><path d="M10.1234 9.07777 125.072 162.692 120.802 165.888 5.85328 12.2731ZM3.18076 17.6035 0 0 15.9912 8.01748ZM127.745 157.362 130.926 174.966 114.935 166.948Z" fill="#ED7D31" transform="matrix(1 0 0 -1 231.5 424.466)"/><path d="M11.7625 6.82116 122.692 104.686 119.163 108.686 8.23414 10.8205ZM6.70555 16.5842 0 0 17.2907 4.58607ZM124.22 98.9229 130.926 115.507 113.635 110.921Z" fill="#ED7D31" transform="matrix(1 0 0 -1 231.5 427.007)"/><path d="M13.2366 3.11171 124.927 54.104 122.712 58.9556 11.0216 7.96333ZM11.2324 13.9224 0 0 17.8774-0.63242ZM124.716 48.1449 135.949 62.0673 118.071 62.6997Z" fill="#ED7D31" transform="matrix(1 0 0 -1 226.5 441.567)"/><path d="M13.4728-1.83706 122.041 4.88937 121.711 10.2125 13.143 3.48606ZM15.4747 8.97408 0 0 16.4641-6.9953ZM119.709-0.598652 135.184 8.37543 118.72 15.3707Z" fill="#ED7D31" transform="matrix(1 0 0 -1 228.5 450.875)"/><path d="M241.067 469.406 348.791 498.531 347.399 503.68 239.675 474.554ZM240.857 480.399 227.5 468.5 245.033 464.953ZM347.609 492.687 360.966 504.585 343.433 508.132Z" fill="#ED7D31"/><path d="M656.357 180.817 762.97 370.525 758.321 373.138 651.708 183.43ZM648.365 188.368 647.5 170.5 662.313 180.529ZM766.313 365.588 767.178 383.455 752.365 373.426Z" fill="#ED7D31"/><path d="M8.76135 10.3983 110.493 195.397 105.819 197.967 4.08801 12.9682ZM0.699656 17.8749 0 0 14.7197 10.1652ZM113.881 190.49 114.581 208.365 99.8612 198.2Z" fill="#ED7D31" transform="matrix(1 0 0 -1 647.5 670.865)"/><path d="M13.1588 3.42561 101.075 46.119 98.7457 50.9166 10.829 8.22317ZM10.8981 14.1856 0 0 17.8873-0.207077ZM101.007 40.1566 111.905 54.3423 94.0172 54.5493Z" fill="#ED7D31" transform="matrix(1 0 0 -1 650.5 503.842)"/><path d="M13.3645-2.50577 103.139-1.42371 103.075 3.90924 13.3003 2.82717ZM15.9024 8.19226 0 0 16.0953-7.80658ZM100.537-6.78879 116.439 1.40346 100.344 9.21005Z" fill="#ED7D31" transform="matrix(1 0 0 -1 647.5 437.904)"/><path d="M660.728 373.647 751.081 415.193 748.853 420.039 658.5 378.493ZM658.695 384.453 647.5 370.5 665.379 369.916ZM750.886 409.233 762.081 423.186 744.202 423.77Z" fill="#ED7D31"/><path d="M662.024 311.717 754.542 399.103 750.88 402.98 658.362 315.594ZM656.638 321.302 650.5 304.5 667.625 309.671ZM756.266 393.395 762.404 410.197 745.279 405.026Z" fill="#ED7D31"/><path d="M658.533 247.678 758.595 384.198 754.294 387.351 654.231 250.831ZM651.506 256.134 648.5 238.5 664.411 246.676ZM761.32 378.894 764.327 396.528 748.416 388.353Z" fill="#ED7D31"/><text font-family="Calibri,Calibri_MSFontService,sans-serif" font-weight="400" font-size="24" transform="translate(250.634 60)">Development Machine<tspan font-size="24" x="732.613" y="-9">Private or Public Cloud</tspan></text></g></svg>